<?xml version="1.0" encoding="UTF-8" standalone="no"?>
<!-- Created with Inkscape (http://www.inkscape.org/) -->

<svg
   xmlns:dc="http://purl.org/dc/elements/1.1/"
   xmlns:cc="http://creativecommons.org/ns#"
   xmlns:rdf="http://www.w3.org/1999/02/22-rdf-syntax-ns#"
   xmlns:svg="http://www.w3.org/2000/svg"
   xmlns="http://www.w3.org/2000/svg"
   xmlns:sodipodi="http://sodipodi.sourceforge.net/DTD/sodipodi-0.dtd"
   xmlns:inkscape="http://www.inkscape.org/namespaces/inkscape"
   width="165.40714mm"
   height="165.40714mm"
   viewBox="0 0 165.40714 165.40714"
   version="1.1"
   id="svg11061"
   inkscape:version="0.92.1 r15371"
   sodipodi:docname="7.svg">
  <defs
     id="defs11055" />
  <sodipodi:namedview
     id="base"
     pagecolor="#ffffff"
     bordercolor="#666666"
     borderopacity="1.0"
     inkscape:pageopacity="0.0"
     inkscape:pageshadow="2"
     inkscape:zoom="0.35"
     inkscape:cx="311.15167"
     inkscape:cy="-30.276745"
     inkscape:document-units="mm"
     inkscape:current-layer="layer1"
     showgrid="false"
     inkscape:window-width="1366"
     inkscape:window-height="705"
     inkscape:window-x="-8"
     inkscape:window-y="-8"
     inkscape:window-maximized="1" />
  <metadata
     id="metadata11058">
    <rdf:RDF>
      <cc:Work
         rdf:about="">
        <dc:format>image/svg+xml</dc:format>
        <dc:type
           rdf:resource="http://purl.org/dc/dcmitype/StillImage" />
        <dc:title></dc:title>
      </cc:Work>
    </rdf:RDF>
  </metadata>
  <g
     inkscape:label="Layer 1"
     inkscape:groupmode="layer"
     id="layer1"
     transform="translate(105.38209,24.584522)">
    <g
       transform="translate(2345.9735,-907.27215)"
       id="g7793">
      <circle
         transform="rotate(-144)"
         r="82.228561"
         cy="-2173.2766"
         cx="1348.837"
         id="circle7735"
         style="opacity:0;fill:#ff0000;fill-opacity:1;stroke:#ff0000;stroke-width:0.94374716;stroke-miterlimit:4;stroke-dasharray:none;stroke-dashoffset:0;stroke-opacity:1" />
      <g
         id="g7761"
         transform="matrix(-0.21405241,-0.15551818,0.15551818,-0.21405241,-2353.6672,1060.0013)">
        <path
           id="path7737"
           d="M 385.999,74.604 V 36.629 L 126.001,36.627 v 37.975 c 0,59.979 28.879,116.799 78.581,153.279 8.971,6.585 14.33,16.997 14.33,28.125 0,11.106 -5.326,21.518 -14.281,28.087 -50.767,37.242 -78.633,94.554 -78.633,153.304 v 37.976 l 259.998,0.002 V 437.4 c 0,-58.66 -27.788,-116.003 -78.636,-153.307 -8.953,-6.568 -14.275,-16.979 -14.275,-28.083 v -10e-4 c 0,-11.131 5.362,-21.543 14.335,-28.129 49.59,-36.401 78.579,-93.165 78.579,-153.276 z"
           inkscape:connector-curvature="0"
           style="fill:#d8ecfe" />
        <path
           id="path7739"
           d="M 307.421,227.878 C 357.011,191.479 385.999,134.715 386,74.603 V 36.628 l -259.998,-10e-4 217.479,10e-4 v 37.975 c 0,60.112 -28.989,116.876 -78.579,153.275 -8.973,6.586 -14.335,16.998 -14.335,28.129 v 10e-4 c 0,11.104 5.323,21.515 14.275,28.083 50.849,37.304 78.637,94.647 78.636,153.307 v 37.975 h 42.52 v -37.975 c 0,-58.66 -27.788,-116.003 -78.636,-153.307 -8.953,-6.568 -14.276,-16.979 -14.275,-28.083 v -10e-4 c -10e-4,-11.131 5.361,-21.543 14.334,-28.129 z"
           inkscape:connector-curvature="0"
           style="fill:#c4e2ff" />
        <path
           id="path7741"
           d="M 155.999,444.851 V 439.8 c 0,-25.113 12.988,-48.88 36.137,-67.931 18.029,-14.838 40.671,-22.653 63.861,-22.653 23.19,0 45.832,7.816 63.862,22.654 23.15,19.053 36.138,42.819 36.138,67.931 v 5.051 z"
           inkscape:connector-curvature="0"
           style="fill:#ffd15b" />
        <path
           id="path7743"
           d="M 119.001,36.627 H 393 c 9.941,0 18,-8.199 18,-18.313 C 411,8.2 402.941,0.001 393,0.001 H 119.001 c -9.942,0 -18.001,8.2 -18,18.315 10e-4,10.113 8.059,18.311 18,18.311 z"
           inkscape:connector-curvature="0"
           style="fill:#596c76" />
        <path
           id="path7745"
           d="M 119.001,512 H 393 c 9.941,0 18,-8.199 18,-18.313 0,-10.114 -8.059,-18.313 -18,-18.313 H 119.001 c -9.942,0 -18.001,8.2 -18,18.315 10e-4,10.113 8.059,18.311 18,18.311 z"
           inkscape:connector-curvature="0"
           style="fill:#596c76" />
        <g
           id="g7749">
          <path
             id="path7747"
             d="m 255.998,330.173 c -4.267,0 -7.726,-3.459 -7.726,-7.726 v -10.302 c 0,-4.268 3.459,-7.726 7.726,-7.726 4.267,0 7.726,3.459 7.726,7.726 v 10.302 c 0,4.267 -3.459,7.726 -7.726,7.726 z m 0,-40.177 c -4.267,0 -7.726,-3.459 -7.726,-7.726 v -10.302 c 0,-4.268 3.459,-7.726 7.726,-7.726 4.267,0 7.726,3.459 7.726,7.726 v 10.302 c 0,4.267 -3.459,7.726 -7.726,7.726 z m 0,-40.177 c -4.267,0 -7.726,-3.459 -7.726,-7.726 v -10.302 c 0,-4.268 3.459,-7.726 7.726,-7.726 4.267,0 7.726,3.459 7.726,7.726 v 10.302 c 0,4.267 -3.459,7.726 -7.726,7.726 z"
             inkscape:connector-curvature="0"
             style="fill:#feb137" />
        </g>
        <path
           id="path7751"
           d="m 157.742,97.956 c 4.958,33.021 20.345,63.479 43.98,87.534 14.38,14.636 33.94,22.783 54.28,22.783 20.34,0 39.899,-8.147 54.279,-22.782 23.634,-24.053 39.021,-54.512 43.979,-87.535 z"
           inkscape:connector-curvature="0"
           style="fill:#feb137" />
        <path
           id="path7753"
           d="m 392.999,0 h -52.564 c 9.941,0 18,8.199 18,18.313 0,10.114 -8.059,18.313 -18,18.313 h 52.564 c 9.941,0 18,-8.199 18,-18.313 C 410.999,8.199 402.94,0 392.999,0 Z"
           inkscape:connector-curvature="0"
           style="fill:#465a61" />
        <path
           id="path7755"
           d="m 392.999,475.373 h -52.564 c 9.941,0 18,8.199 18,18.313 0,10.114 -8.059,18.313 -18,18.313 h 52.564 c 9.941,0 18,-8.199 18,-18.313 0,-10.114 -8.059,-18.313 -18,-18.313 z"
           inkscape:connector-curvature="0"
           style="fill:#465a61" />
        <path
           id="path7757"
           d="m 337.161,389.308 c 4.172,15.664 6.317,31.825 6.317,48.091 v 7.453 h 12.52 V 439.8 c -10e-4,-17.926 -6.628,-35.163 -18.837,-50.492 z"
           inkscape:connector-curvature="0"
           style="fill:#ffc344" />
        <path
           id="path7759"
           d="m 342.001,97.957 c -4.414,35.001 -18.659,68.034 -40.985,95.544 3.271,-2.402 6.376,-5.069 9.264,-8.008 23.634,-24.053 39.021,-54.512 43.979,-87.535 h -12.258 z"
           inkscape:connector-curvature="0"
           style="fill:#f6ab31" />
      </g>
    </g>
  </g>
</svg>
