<?xml version="1.0" encoding="iso-8859-1"?>
<!-- Generator: Adobe Illustrator 19.0.0, SVG Export Plug-In . SVG Version: 6.00 Build 0)  -->
<svg version="1.1" id="Capa_1" xmlns="http://www.w3.org/2000/svg" xmlns:xlink="http://www.w3.org/1999/xlink" x="0px" y="0px"
	 viewBox="0 0 496.485 496.485" style="enable-background:new 0 0 496.485 496.485;" xml:space="preserve">
<circle style="fill:#FDBF5E;" cx="248.242" cy="248.242" r="247.467"/>
<path style="fill:#FFFFFF;" d="M392.533,66.715V45.77H103.952v20.945c0,70.594,44.218,133.43,121.018,181.527
	c-77.576,48.097-121.018,115.588-121.018,185.406v17.067h289.358v-17.067c0-70.594-44.218-137.309-121.018-185.406
	C348.315,200.145,392.533,136.533,392.533,66.715z"/>
<path id="SVGCleanerId_0" style="fill:#193651;" d="M392.533,458.473H103.952c-4.655,0-7.758-3.103-7.758-7.758v-17.067
	c0-69.042,41.891-136.533,114.812-185.406C135.758,198.594,96.194,135.758,96.194,66.715V45.77c0-4.655,3.103-7.758,7.758-7.758
	h289.358c4.655,0,7.758,3.103,7.758,7.758v20.945c0,69.042-39.564,131.879-114.812,181.527
	c72.921,48.873,114.812,116.364,114.812,185.406v17.067C400.291,455.37,397.188,458.473,392.533,458.473z M111.709,442.958h273.842
	v-9.309c0-66.715-42.667-132.655-117.915-179.2c-2.327-0.776-3.879-3.879-3.879-6.206s1.552-5.43,3.879-6.206
	c76.8-48.097,117.915-108.606,117.915-175.321V53.527H111.709v13.188c0,66.715,40.339,127.224,117.915,175.321
	c2.327,1.552,3.879,3.879,3.879,6.206s-1.552,5.43-3.879,6.206c-74.473,46.545-117.915,111.709-117.915,179.2
	C111.709,433.648,111.709,442.958,111.709,442.958z"/>
<rect x="86.109" y="7.758" style="fill:#CFD0D1;" width="324.267" height="38.012"/>
<path style="fill:#193651;" d="M410.376,53.527H86.109c-4.655,0-7.758-3.103-7.758-7.758V7.758C78.352,3.103,81.455,0,86.109,0
	h324.267c4.655,0,7.758,3.103,7.758,7.758V45.77C418.133,49.648,415.03,53.527,410.376,53.527z M93.867,38.012h308.752V15.515
	H93.867V38.012z"/>
<g>
	<path style="fill:#E1E6E9;" d="M107.055,99.297c11.636,57.406,52.752,108.606,117.915,148.945h46.545
		c65.164-40.339,106.279-91.539,117.915-148.945C389.43,99.297,107.055,99.297,107.055,99.297z"/>
	<path style="fill:#E1E6E9;" d="M110.158,389.43c-3.879,14.739-6.206,29.479-6.206,44.994v17.067h289.358v-17.067
		c0-15.515-2.327-30.255-6.206-44.994H110.158z"/>
</g>
<rect x="86.109" y="450.715" style="fill:#CFD0D1;" width="324.267" height="38.012"/>
<path style="fill:#193651;" d="M410.376,496.485H86.109c-4.655,0-7.758-3.103-7.758-7.758v-38.012c0-4.655,3.103-7.758,7.758-7.758
	h324.267c4.655,0,7.758,3.103,7.758,7.758v38.012C418.133,493.382,415.03,496.485,410.376,496.485z M93.867,480.97h308.752v-22.497
	H93.867V480.97z"/>
<g>
	<path id="SVGCleanerId_0_1_" style="fill:#193651;" d="M392.533,458.473H103.952c-4.655,0-7.758-3.103-7.758-7.758v-17.067
		c0-69.042,41.891-136.533,114.812-185.406C135.758,198.594,96.194,135.758,96.194,66.715V45.77c0-4.655,3.103-7.758,7.758-7.758
		h289.358c4.655,0,7.758,3.103,7.758,7.758v20.945c0,69.042-39.564,131.879-114.812,181.527
		c72.921,48.873,114.812,116.364,114.812,185.406v17.067C400.291,455.37,397.188,458.473,392.533,458.473z M111.709,442.958h273.842
		v-9.309c0-66.715-42.667-132.655-117.915-179.2c-2.327-0.776-3.879-3.879-3.879-6.206s1.552-5.43,3.879-6.206
		c76.8-48.097,117.915-108.606,117.915-175.321V53.527H111.709v13.188c0,66.715,40.339,127.224,117.915,175.321
		c2.327,1.552,3.879,3.879,3.879,6.206s-1.552,5.43-3.879,6.206c-74.473,46.545-117.915,111.709-117.915,179.2
		C111.709,433.648,111.709,442.958,111.709,442.958z"/>
</g>
<g>
	<circle style="fill:#E1E6E9;" cx="245.915" cy="286.255" r="12.412"/>
	<circle style="fill:#E1E6E9;" cx="277.721" cy="328.145" r="12.412"/>
	<circle style="fill:#E1E6E9;" cx="233.503" cy="359.952" r="12.412"/>
</g>
<rect x="406.497" y="198.594" style="fill:#193651;" width="15.515" height="15.515"/>
<rect x="406.497" y="240.485" style="fill:#193651;" width="15.515" height="15.515"/>
<g>
	<rect x="406.497" y="282.376" style="fill:#193651;" width="15.515" height="15.515"/>
	<rect x="74.473" y="198.594" style="fill:#193651;" width="15.515" height="15.515"/>
</g>
<rect x="74.473" y="240.485" style="fill:#193651;" width="15.515" height="15.515"/>
<rect x="74.473" y="282.376" style="fill:#193651;" width="15.515" height="15.515"/>
<g>
</g>
<g>
</g>
<g>
</g>
<g>
</g>
<g>
</g>
<g>
</g>
<g>
</g>
<g>
</g>
<g>
</g>
<g>
</g>
<g>
</g>
<g>
</g>
<g>
</g>
<g>
</g>
<g>
</g>
</svg>
