<svg enable-background="new 0 0 24 24" height="512" viewBox="0 0 24 24" width="512" xmlns="http://www.w3.org/2000/svg"><path d="m22.097 12.904c-2.535-2.534-6.658-2.534-9.193 0-2.534 2.534-2.534 6.658 0 9.192 2.535 2.534 6.658 2.534 9.193 0 2.534-2.534 2.534-6.658 0-9.192zm-3.36 7.248-1.237-1.238-1.237 1.238c-.391.39-1.023.39-1.414 0-.391-.391-.391-1.024 0-1.415l1.237-1.237-1.237-1.237c-.391-.391-.391-1.024 0-1.415.391-.39 1.024-.39 1.414 0l1.237 1.238 1.237-1.238c.391-.39 1.023-.39 1.414 0 .391.391.391 1.024 0 1.415l-1.237 1.237 1.237 1.237c.391.391.391 1.024 0 1.415-.39.39-1.023.39-1.414 0z" fill="#f44336"/><path d="m17.5 11.003c-1.665 0-3.329.634-4.597 1.901-2.534 2.534-2.534 6.658 0 9.192 1.268 1.267 2.932 1.901 4.597 1.901v-5.083l-1.237 1.238c-.195.195-.451.293-.707.293s-.512-.098-.707-.293c-.391-.391-.391-1.024 0-1.415l1.237-1.237-1.237-1.237c-.391-.391-.391-1.024 0-1.415.195-.195.451-.293.707-.293s.512.098.707.293l1.237 1.238z" fill="#d43a2f"/><path d="m20 4.75v2.25h-20v-2.25c0-1.52 1.23-2.75 2.75-2.75h14.5c1.52 0 2.75 1.23 2.75 2.75z" fill="#2196f3"/><path d="m9.5 17.5c0-4.411 3.589-8 8-8 .873 0 1.713.146 2.5.406v-2.906h-20v9.25c0 1.52 1.23 2.75 2.75 2.75h6.896c-.093-.486-.146-.987-.146-1.5z" fill="#eceff1"/><path d="m10 2h-7.25c-1.52 0-2.75 1.23-2.75 2.75v2.25h10z" fill="#1d83d4"/><path d="m10 7h-10v9.25c0 1.52 1.23 2.75 2.75 2.75h6.896c-.093-.486-.146-.987-.146-1.5 0-.979.177-1.917.5-2.785z" fill="#cdd0d2"/><path d="m15 5c-.553 0-1-.448-1-1v-3c0-.552.447-1 1-1s1 .448 1 1v3c0 .552-.447 1-1 1z" fill="#607d8b"/><path d="m5 5c-.552 0-1-.448-1-1v-3c0-.552.448-1 1-1s1 .448 1 1v3c0 .552-.448 1-1 1z" fill="#607d8b"/><g fill="#546d79"><path d="m15 0c-.553 0-1 .448-1 1v3c0 .552.447 1 1 1z"/><path d="m5 0c-.553 0-1 .448-1 1v3c0 .552.447 1 1 1z"/></g></svg>