<svg enable-background="new 0 0 24 24" height="512" viewBox="0 0 24 24" width="512" xmlns="http://www.w3.org/2000/svg"><path d="m18 0c-2.757 0-5 2.243-5 5s2.243 5 5 5 5-2.243 5-5-2.243-5-5-5z" fill="#f44336"/><path d="m18 0c-2.757 0-5 2.243-5 5s2.243 5 5 5z" fill="#d43a2f"/><path d="m14 20c0 2.209-1.791 4-4 4s-4-1.791-4-4 1.791-4 4-4 4 1.791 4 4z" fill="#ffa000"/><path d="m17.008 11.921c-3.39-.484-6.008-3.399-6.008-6.921 0-1 .214-1.949.594-2.81-.513-.12-1.045-.19-1.594-.19-3.859 0-7 3.14-7 7v2.788c0 1.979-.867 3.847-2.388 5.133-.389.332-.612.817-.612 1.329 0 .965.785 1.75 1.75 1.75h16.5c.965 0 1.75-.785 1.75-1.75 0-.512-.223-.997-.621-1.338-1.478-1.249-2.333-3.062-2.371-4.991z" fill="#ffc107"/><path d="m9.875 20h-3.875c0 2.167 1.724 3.932 3.875 3.998z" fill="#de8b00"/><path d="m9.875 2.001c-3.802.067-6.875 3.181-6.875 6.999v2.788c0 1.979-.867 3.847-2.388 5.133-.389.332-.612.817-.612 1.329 0 .965.785 1.75 1.75 1.75h4.25 3.875z" fill="#dea806"/></svg>